# xmcd
#
# Track frame offsets:
#	150
#	12185
#	25902
#	41922
#	58357
#	77812
#	87412
#	108877
#	118860
#	128880
#	136115
#	148077
#	159245
#	169810
#
# Disc length: 2569 seconds
#
# Revision: 1
# Processed by: cddbd v1.5.1PL0 Copyright (c) Steve Scherf et al.
# Submitted via: audiograbber 1.83.01
#
DISCID=be0a070e
DTITLE=Beverly Cotton With The Green Grass Cloggers - Clog-In
DYEAR=2005
DGENRE=Country
TTITLE0=Old Jimmy Sutton
TTITLE1=The Basic Step
TTITLE2=Variations
TTITLE3=Chugging Rhythms
TTITLE4=Traditional Steps
TTITLE5=Smooth Style Flatfooting
TTITLE6=Advanced Steps
TTITLE7=Hell Amongst The Yearlings
TTITLE8=Colored Aristocracy
TTITLE9=Buckdance
TTITLE10=Susanna Gal
TTITLE11=Golden Keyboard - The Tinker's Daughter - The Earl's Chair
TTITLE12=Miss Liza Poor Gal
TTITLE13=Sandy River Belle - Alabama Gals
EXTD=
EXTT0=
EXTT1=
EXTT2=
EXTT3=
EXTT4=
EXTT5=
EXTT6=
EXTT7=
EXTT8=
EXTT9=
EXTT10=
EXTT11=
EXTT12=
EXTT13=
PLAYORDER=
